<svg aria-hidden="true" style="position: absolute; width: 0; height: 0; overflow: hidden;" version="1.1" xmlns="http://www.w3.org/2000/svg" xmlns:xlink="http://www.w3.org/1999/xlink">
<defs>
<symbol id="logo" viewBox="0 0 72 32">
<path  d="M16.056 3.572c0 0.356-0.011 0.398-0.187 0.603-0.102 0.12-0.342 0.325-0.534 0.452-0.347 0.235-0.684 0.579-0.796 0.826-0.064 0.144-0.075 0.392-0.027 0.609 0.032 0.121 0.048 0.097 0.128-0.169 0.118-0.386 0.208-0.494 0.882-1.007 0.428-0.326 0.561-0.464 0.657-0.681 0.134-0.302 0.123-0.567-0.032-0.856l-0.091-0.163v0.386zM16.745 4.271c0.016 0.078 0.048 0.326 0.069 0.549 0.027 0.362 0.016 0.44-0.112 0.736-0.171 0.392-0.379 0.597-1.122 1.097-0.668 0.446-1.159 0.953-1.347 1.387-0.118 0.271-0.139 0.386-0.118 0.675 0.016 0.187 0.059 0.422 0.096 0.525l0.069 0.181 0.037-0.332c0.075-0.705 0.401-1.103 1.603-2.002 0.78-0.579 0.999-0.814 1.16-1.236 0.123-0.338 0.075-0.88-0.118-1.308-0.166-0.374-0.283-0.513-0.219-0.271z"></path>
<path  d="M17.761 5.441c0.107 0.47 0.139 0.657 0.182 1.061 0.15 1.381-0.321 2.11-2.127 3.28-1.229 0.802-1.918 1.447-2.217 2.098l-0.15 0.313-0.833 0.006c-1.56 0.012-2.928 0.434-3.842 1.194-0.39 0.326-0.497 0.501-0.55 0.874-0.022 0.151-0.091 0.44-0.155 0.639-0.203 0.627-0.321 1.363-0.358 2.183-0.053 1.345 0.134 2.424 0.625 3.546 0.513 1.181 1.33 2.11 2.378 2.719 0.326 0.187 0.577 0.332 0.561 0.314-0.197-0.191-0.415-0.397-0.634-0.602l-0.034-0.031c-0.7-0.663-0.951-0.947-1.32-1.495-0.753-1.116-1.074-2.315-1.069-3.979 0-1.043 0.166-2.502 0.278-2.502 0.027 0 0.214 0.121 0.422 0.265 0.775 0.537 1.721 0.796 3.308 0.892 2.271 0.145 4.36-0.181 5.477-0.844 0.155-0.091 0.294-0.169 0.31-0.181 0.069-0.036 0.428 0.905 0.534 1.405 0.369 1.736-0.262 3.636-1.768 5.336-0.518 0.591-1.197 1.2-1.768 1.598-0.214 0.151-0.379 0.271-0.363 0.271 0.059 0 0.999-0.476 1.443-0.724 1.416-0.808 2.335-1.881 2.826-3.334 0.305-0.88 0.396-1.435 0.396-2.363 0.005-0.736-0.016-0.929-0.15-1.507-0.15-0.651-0.368-1.339-0.561-1.773l-0.102-0.217-0.064 0.271c-0.080 0.338-0.112 0.38-0.502 0.705-0.353 0.295-0.465 0.332-0.305 0.102 0.566-0.808-0.924-1.676-3.318-1.923-0.203-0.024-0.363-0.060-0.363-0.078 0-0.024 0.064-0.151 0.139-0.271l0.139-0.235 0.593 0.042c0.331 0.018 0.705 0.048 0.839 0.060l0.241 0.024-0.315-0.121c-0.198-0.066-0.432-0.121-0.674-0.154l-0.021-0.002c-0.63-0.060-0.636-0.072-0.214-0.452 0.342-0.313 1.036-0.832 2.18-1.622 0.262-0.175 0.663-0.531 0.892-0.778 0.892-0.971 1.053-2.026 0.497-3.256-0.15-0.338-0.524-0.916-0.481-0.754zM13.342 12.73l-0.053 0.259-0.513 0.042c-0.646 0.054-1.314 0.181-1.795 0.344-0.395 0.133-1.165 0.476-1.138 0.507 0.010 0.012 0.219-0.048 0.47-0.127 0.646-0.211 1.576-0.386 2.33-0.428l0.646-0.036 0.038 0.247c0.053 0.404 0.251 0.947 0.304 0.85 0.027-0.048 0.048-0.169 0.048-0.277s0.027-0.332 0.059-0.5l0.059-0.302h0.353c0.428 0 1.282 0.139 1.71 0.278 0.732 0.235 1.4 0.79 1.4 1.164 0 0.398-0.539 0.778-1.325 0.953-0.593 0.121-3.334 0.175-4.221 0.078-0.807-0.084-1.779-0.35-2.233-0.603-0.353-0.193-0.689-0.566-0.748-0.814-0.086-0.38 0.15-0.705 0.791-1.103 0.85-0.518 1.881-0.772 3.254-0.79l0.62-0.006-0.054 0.265z"></path>
<path  d="M19.898 15.715c-0.24 0.163-0.342 0.356-0.342 0.639 0 0.302 0.139 0.537 0.507 0.862 0.646 0.567 0.86 1.29 0.614 2.098-0.23 0.748-0.775 1.471-2.084 2.761-0.219 0.217-0.224 0.223-0.053 0.115 0.101-0.066 0.39-0.253 0.641-0.41 1.501-0.946 2.687-2.315 2.971-3.43 0.107-0.446 0.080-0.983-0.075-1.387-0.155-0.386-0.657-0.934-1.074-1.17s-0.839-0.266-1.106-0.079zM5.562 22.444c-0.925 0.561-1.325 1.206-1.175 1.881 0.096 0.428 0.577 0.953 1.17 1.272 1.154 0.621 2.917 1.121 4.809 1.363 2.682 0.343 5.766 0.205 8.068-0.362 2.741-0.675 4.141-1.664 3.901-2.755-0.037-0.145-0.123-0.344-0.198-0.44-0.096-0.127-0.123-0.145-0.096-0.054 0.235 0.772-0.128 1.393-1.122 1.929-0.588 0.32-1.154 0.513-2.324 0.784-1.79 0.416-3.302 0.591-5.102 0.591-1.929 0-3.169-0.157-4.969-0.621-1.1-0.289-2.201-0.681-2.687-0.959-0.406-0.229-0.801-0.621-0.898-0.892-0.219-0.585 0.054-1.212 0.748-1.719 0.39-0.283 0.331-0.295-0.123-0.018zM28.234 20.257c-0.251 0.24-0.492 0.36-0.725 0.36-0.129 0-0.218-0.048-0.265-0.144 0.085-0.085 0.127-0.17 0.127-0.255s-0.013-0.149-0.039-0.193l-0.072-0.127 0.088 0.166c-0.090-0.043-0.162-0.114-0.203-0.202l-0.001-0.003c-0.048-0.096-0.072-0.212-0.072-0.348 0-0.14 0.077-0.299 0.232-0.476-0.069-0.094-0.11-0.212-0.11-0.339 0-0.001 0-0.003 0-0.004v0c0-0.125 0.020-0.229 0.061-0.31 0.044-0.085 0.1-0.16 0.166-0.227 0.147-0.14 0.304-0.21 0.47-0.21 0.11 0 0.19 0.039 0.238 0.116-0.099 0.107-0.149 0.277-0.149 0.509 0 0.229 0.038 0.424 0.116 0.586 0.081 0.162 0.19 0.301 0.326 0.415 0.288 0.244 0.642 0.365 1.062 0.365 0.468 0 0.793-0.172 0.974-0.515 0.048-0.090 0.076-0.196 0.077-0.309v-0c0-0.107-0.024-0.201-0.072-0.282-0.048-0.085-0.11-0.166-0.188-0.244-0.129-0.125-0.326-0.269-0.592-0.431-0.254-0.181-0.555-0.271-0.901-0.271-0.225 0-0.376 0.018-0.454 0.055 0.048-0.111 0.072-0.221 0.072-0.332s-0.074-0.23-0.221-0.36c-0.148-0.133-0.28-0.265-0.398-0.398-0.103-0.116-0.194-0.247-0.271-0.387l-0.006-0.011c-0.132-0.228-0.21-0.503-0.21-0.795 0-0.001 0-0.001 0-0.002v0c0-0.28 0.057-0.527 0.171-0.741 0.124-0.224 0.29-0.411 0.488-0.555l0.005-0.003c0.439-0.328 1.001-0.492 1.687-0.492 0.332 0 0.558 0.015 0.68 0.044 0.125 0.030 0.225 0.057 0.299 0.083 0.099 0.037 0.221 0.056 0.365 0.056s0.243-0.031 0.298-0.094c0.059-0.063 0.089-0.12 0.089-0.172 0-0.055-0.006-0.098-0.017-0.127 0.026-0.007 0.056-0.011 0.087-0.011 0.059 0 0.115 0.014 0.164 0.040l-0.002-0.001c0.059 0.026 0.111 0.061 0.155 0.105 0.089 0.099 0.133 0.206 0.133 0.321 0 0.11-0.022 0.195-0.067 0.254 0.103 0.096 0.155 0.232 0.155 0.409s-0.074 0.326-0.221 0.448c0.033 0.067 0.050 0.148 0.050 0.244s-0.052 0.188-0.155 0.276c-0.103 0.089-0.201 0.133-0.293 0.133-0.159 0-0.266-0.020-0.321-0.061 0.048-0.118 0.072-0.245 0.072-0.382 0-0.14-0.037-0.273-0.111-0.398s-0.168-0.227-0.282-0.304c-0.214-0.147-0.468-0.221-0.763-0.221-0.372 0-0.623 0.118-0.752 0.354-0.041 0.074-0.061 0.155-0.061 0.244 0 0.085 0.011 0.164 0.033 0.238 0.026 0.070 0.066 0.142 0.122 0.216 0.107 0.144 0.258 0.28 0.453 0.409 0.255 0.166 0.432 0.249 0.531 0.249 0.214 0 0.4-0.052 0.559-0.155-0.044 0.177-0.066 0.3-0.066 0.371 0 0.107 0.085 0.23 0.254 0.37 0.476 0.329 0.8 0.629 0.973 0.902 0.166 0.265 0.249 0.56 0.249 0.885s-0.072 0.603-0.215 0.835c-0.144 0.229-0.339 0.426-0.586 0.592-0.513 0.343-1.134 0.514-1.864 0.514-0.498 0-0.95-0.090-1.355-0.271zM28.041 15.19c-0.107 0.052-0.16 0.195-0.16 0.431 0 0.232 0.076 0.455 0.227 0.669 0.151 0.21 0.391 0.448 0.719 0.714 0.077 0.059 0.116 0.116 0.116 0.171 0 0.085-0.007 0.153-0.022 0.205 0.044-0.011 0.122-0.022 0.232-0.033 0.269-0.026 0.603 0.099 1.001 0.376 0.634 0.391 0.951 0.802 0.951 1.233 0 0.162-0.022 0.284-0.067 0.365 0.133-0.026 0.234-0.138 0.304-0.338 0.018-0.059 0.027-0.12 0.027-0.183 0-0.298-0.162-0.601-0.486-0.907-0.321-0.31-0.784-0.608-1.388-0.896-1.003-0.509-1.488-1.111-1.455-1.808zM36.542 19.582c0.070-0.074 0.125-0.166 0.166-0.276 0.041-0.114 0.061-0.232 0.061-0.354 0-0.125-0.007-0.24-0.022-0.343 0.026-0.055 0.096-0.098 0.21-0.127 0.114-0.033 0.19-0.050 0.227-0.050 0.14 0 0.253 0.054 0.337 0.16 0.085 0.103 0.127 0.249 0.127 0.437 0 0.184-0.055 0.367-0.166 0.548-0.115 0.19-0.259 0.349-0.427 0.478l-0.004 0.003c-0.402 0.313-0.87 0.47-1.405 0.47-1.018 0-1.693-0.385-2.024-1.156-0.122-0.284-0.183-0.64-0.183-1.068v-0.675c0-0.173-0.19-0.356-0.57-0.548 0.38-0.218 0.57-0.511 0.57-0.879v-0.653c0-0.42-0.171-0.63-0.514-0.63-0.125 0-0.229 0.031-0.31 0.094-0.052-0.070-0.078-0.142-0.078-0.216 0-0.077 0.013-0.16 0.039-0.249 0.029-0.092 0.079-0.175 0.149-0.249 0.177-0.192 0.452-0.258 0.824-0.199v-0.177c0-0.387 0.098-0.728 0.293-1.023 0.173-0.266 0.326-0.398 0.459-0.398 0.136 0 0.242 0.046 0.315 0.138 0.063-0.291 0.146-0.502 0.249-0.631s0.251-0.193 0.443-0.193v2.306h1.797c0.029 0.059 0.044 0.159 0.044 0.299 0 0.136-0.054 0.247-0.161 0.332-0.107 0.081-0.236 0.122-0.387 0.122h-1.294v3.744c0 0.642 0.146 1.018 0.437 1.128 0.085 0.030 0.175 0.044 0.271 0.044 0.099 0 0.193-0.017 0.282-0.050 0.092-0.037 0.173-0.091 0.243-0.161zM33.97 18.924c0.173-0.11 0.271-0.341 0.293-0.691 0.015-0.251 0.022-0.446 0.022-0.586 0.004-0.14 0.006-0.253 0.006-0.338 0.004-0.088 0.005-0.157 0.005-0.205v-0.221c0-0.107-0.002-0.244-0.005-0.41 0-0.17-0.002-0.352-0.006-0.548 0-0.199-0.004-0.389-0.011-0.569-0.011-0.435-0.027-0.701-0.050-0.797-0.044-0.214-0.129-0.361-0.254-0.442v1.725c0 0.513-0.009 0.784-0.028 0.813-0.015 0.030-0.028 0.065-0.038 0.101l-0.001 0.004c-0.033 0.111-0.159 0.203-0.376 0.277 0.221 0.077 0.346 0.171 0.376 0.282 0.044 0.177 0.066 0.592 0.066 1.245v0.36zM41.797 19.864c-0.336 0.443-0.839 0.664-1.51 0.664-0.819 0-1.433-0.245-1.842-0.735-0.167-0.195-0.294-0.431-0.362-0.69l-0.003-0.012c-0.037-0.155-0.101-0.273-0.194-0.354-0.099-0.089-0.212-0.165-0.334-0.223l-0.009-0.004c0.266-0.122 0.455-0.35 0.57-0.686 0.122-0.354 0.325-0.61 0.608-0.769 0.306-0.166 0.644-0.253 1.012-0.26 0.307-0.007 0.592-0.021 0.874-0.042l-0.056 0.003c0.175-0.013 0.335-0.039 0.491-0.076l-0.021 0.004c0.255-0.059 0.454-0.168 0.598-0.326v-0.83c0-0.365-0.076-0.632-0.227-0.802-0.148-0.17-0.374-0.254-0.68-0.254-0.302 0-0.527 0.057-0.675 0.171-0.144 0.11-0.216 0.26-0.216 0.448 0 0.288 0.148 0.428 0.443 0.42-0.059 0.288-0.214 0.432-0.465 0.432-0.074 0-0.146-0.013-0.216-0.039v0.017c0 0.096 0.044 0.157 0.133 0.182-0.092 0.14-0.247 0.208-0.465 0.205s-0.387-0.12-0.509-0.348c-0.055 0.014-0.117 0.022-0.182 0.022-0.004 0-0.008-0-0.012-0h0.001c-0.070 0-0.149-0.024-0.238-0.072-0.085-0.049-0.154-0.116-0.203-0.197l-0.001-0.002c0.184-0.111 0.297-0.282 0.338-0.515 0.044-0.284 0.271-0.571 0.68-0.863 0.494-0.35 1.125-0.525 1.892-0.525 1.272 0 2.048 0.391 2.328 1.172 0.092 0.262 0.138 0.572 0.138 0.929v0.448c0 0.181 0.044 0.328 0.133 0.442 0.092 0.114 0.247 0.208 0.464 0.282-0.232 0.107-0.382 0.203-0.448 0.288-0.093 0.118-0.149 0.27-0.149 0.434 0 0.003 0 0.006 0 0.009v-0 1.659c0.107 0.276 0.26 0.415 0.459 0.415 0.125 0 0.229-0.031 0.31-0.094 0.052 0.070 0.077 0.159 0.077 0.265 0 0.103-0.054 0.203-0.16 0.299-0.103 0.096-0.26 0.144-0.47 0.144-0.001 0-0.002 0-0.002 0-0.218 0-0.42-0.066-0.588-0.179l0.004 0.002c-0.159 0.118-0.3 0.177-0.426 0.177-0.121 0-0.229-0.013-0.321-0.039-0.094-0.024-0.177-0.062-0.251-0.112l0.003 0.002c-0.173-0.114-0.28-0.277-0.321-0.487zM42.145 18.924c0.214-0.085 0.327-0.492 0.338-1.222v-0.531c0-0.199-0.002-0.369-0.006-0.509 0-0.144-0.002-0.28-0.005-0.409-0.015-0.465-0.057-0.741-0.127-0.83-0.070-0.092-0.136-0.153-0.199-0.183v3.684zM40.104 18.531c0 0.155 0.017 0.306 0.050 0.453s0.083 0.277 0.149 0.387c0.148 0.232 0.356 0.348 0.625 0.348 0.203 0 0.371-0.083 0.504-0.249 0.125-0.162 0.188-0.371 0.188-0.625v-1.803c-0.236 0.136-0.538 0.23-0.907 0.282-0.406 0.063-0.609 0.464-0.609 1.206zM39.274 19.775c0.033-0.021 0.055-0.058 0.055-0.099 0-0 0-0 0-0v0c0-0.055-0.026-0.133-0.078-0.232-0.184-0.34-0.276-0.618-0.276-0.835s0.007-0.374 0.022-0.47c0.017-0.093 0.040-0.175 0.069-0.253l-0.003 0.010c0.029-0.071 0.061-0.131 0.097-0.187l-0.003 0.005c0.037-0.052 0.068-0.098 0.094-0.138 0.048-0.085 0.072-0.142 0.072-0.172 0-0.033-0.016-0.061-0.050-0.083-0.151 0.070-0.262 0.153-0.332 0.249-0.125 0.169-0.218 0.389-0.277 0.658-0.015 0.078-0.144 0.172-0.387 0.282 0.236 0.107 0.365 0.201 0.387 0.282 0.125 0.439 0.328 0.767 0.609 0.984zM46.050 20.323c-0.17 0.118-0.363 0.177-0.581 0.177s-0.376-0.050-0.475-0.15c-0.096-0.103-0.144-0.201-0.144-0.293 0-0.122 0.020-0.21 0.061-0.265 0.081 0.063 0.184 0.094 0.31 0.094 0.236 0 0.389-0.114 0.459-0.343v-1.676c0-0.17-0.033-0.295-0.1-0.376-0.118-0.144-0.31-0.28-0.575-0.41 0.45-0.206 0.675-0.524 0.675-0.951v-0.581c0-0.313-0.107-0.483-0.321-0.509-0.065-0.007-0.14-0.011-0.216-0.011-0.008 0-0.015 0-0.023 0h0.001c-0.096 0-0.184 0.031-0.265 0.094-0.052-0.070-0.078-0.142-0.078-0.216 0-0.078 0.018-0.162 0.055-0.255 0.041-0.096 0.101-0.186 0.183-0.271 0.192-0.199 0.415-0.299 0.669-0.299 0.258 0 0.472 0.041 0.642 0.122 0.203-0.229 0.42-0.343 0.653-0.343 0.361 0 0.542 0.199 0.542 0.597v0.758c0.369-0.907 0.955-1.36 1.759-1.36 0.361 0 0.654 0.11 0.879 0.332 0.232 0.225 0.348 0.536 0.348 0.934v0.078c0 0.025-0.004 0.079-0.011 0.16-0.007 0.077-0.005 0.157 0.006 0.238 0.015 0.081 0.037 0.147 0.066 0.199 0.041 0.077 0.116 0.138 0.227 0.183-0.026 0.099-0.087 0.19-0.182 0.271-0.082 0.072-0.191 0.116-0.309 0.116-0 0-0 0-0.001 0h-0.105c-0.144 0.181-0.345 0.308-0.603 0.381-0.071 0.021-0.152 0.033-0.235 0.033-0.003 0-0.006 0-0.009-0h0c-0.085 0-0.16-0.019-0.227-0.055-0.063-0.041-0.098-0.083-0.105-0.127 0.070-0.033 0.105-0.1 0.105-0.199v-0.028c-0.030 0.007-0.056 0.011-0.078 0.011h-0.055c-0.122 0-0.232-0.046-0.332-0.138-0.094-0.091-0.161-0.21-0.187-0.344l-0.001-0.004c0.199 0.007 0.372-0.067 0.52-0.221 0.133-0.136 0.199-0.276 0.199-0.42 0-0.339-0.148-0.509-0.442-0.509-0.255 0-0.511 0.203-0.769 0.609-0.244 0.372-0.396 0.758-0.459 1.156v2.992c0.041 0.129 0.103 0.225 0.188 0.288s0.201 0.094 0.348 0.094 0.262-0.031 0.343-0.094c0.041 0.055 0.061 0.136 0.061 0.243s-0.050 0.212-0.149 0.315c-0.096 0.1-0.26 0.15-0.492 0.15-0.229 0-0.448-0.063-0.658-0.188-0.148 0.125-0.326 0.188-0.536 0.188s-0.402-0.059-0.575-0.177zM46.525 17.701c0.004-0.125 0.005-0.23 0.005-0.315 0.004-0.085 0.006-0.153 0.006-0.204v-0.149c0-0.055-0.002-0.125-0.006-0.21 0-0.088-0.002-0.186-0.005-0.293 0-0.11-0.002-0.218-0.006-0.321-0.022-0.383-0.064-0.629-0.127-0.735-0.059-0.11-0.12-0.186-0.182-0.227v0.36c0 0.619-0.015 0.984-0.044 1.095-0.026 0.107-0.070 0.188-0.133 0.243-0.059 0.052-0.148 0.098-0.266 0.138 0.221 0.078 0.347 0.172 0.376 0.282 0.044 0.177 0.067 0.575 0.067 1.195v0.359c0.17-0.11 0.265-0.336 0.287-0.675 0.014-0.157 0.025-0.345 0.028-0.535l0-0.007zM55.74 18.719c0.081-0.155 0.23-0.232 0.448-0.232 0.148 0 0.262 0.061 0.343 0.182 0.066 0.096 0.1 0.214 0.1 0.354 0 0.137-0.035 0.275-0.105 0.415-0.071 0.147-0.162 0.274-0.271 0.381l-0 0c-0.116 0.115-0.247 0.216-0.389 0.299l-0.009 0.005c-0.136 0.083-0.293 0.157-0.458 0.215l-0.018 0.006c-0.316 0.116-0.682 0.183-1.063 0.183-0.004 0-0.007 0-0.011-0h0.001c-0.005 0-0.011 0-0.017 0-0.374 0-0.731-0.071-1.059-0.2l0.020 0.007c-0.333-0.132-0.618-0.32-0.858-0.554l0.001 0c-0.483-0.476-0.775-1.114-0.874-1.914-0.026-0.181-0.068-0.31-0.127-0.387-0.11-0.137-0.293-0.267-0.547-0.393 0.391-0.177 0.616-0.496 0.675-0.957 0.096-0.704 0.409-1.261 0.94-1.67 0.509-0.398 1.128-0.597 1.858-0.597 0.631 0 1.162 0.192 1.593 0.575 0.409 0.361 0.614 0.78 0.614 1.256 0 0.269 0.094 0.441 0.282 0.514-0.111 0.181-0.266 0.271-0.465 0.271-0.070 0-0.135-0.007-0.194-0.022-0.129 0.188-0.315 0.315-0.558 0.382-0.066 0.017-0.143 0.027-0.221 0.028h-0c-0.089-0.002-0.175-0.016-0.256-0.041l0.007 0.002c-0.096-0.029-0.162-0.068-0.199-0.116 0.107-0.044 0.17-0.155 0.188-0.332-0.022 0.004-0.042 0.006-0.061 0.006h-0.044c-0.251 0-0.406-0.144-0.464-0.432 0.273 0 0.472-0.105 0.597-0.315 0.044-0.074 0.067-0.164 0.067-0.271 0-0.236-0.076-0.421-0.227-0.553-0.151-0.136-0.361-0.205-0.631-0.205-0.623 0-0.935 0.402-0.935 1.206v2.688c0 0.627 0.24 1.023 0.719 1.189 0.14 0.051 0.299 0.077 0.476 0.077s0.338-0.022 0.481-0.066c0.148-0.044 0.271-0.105 0.371-0.182 0.203-0.159 0.304-0.36 0.304-0.603 0-0.074-0.007-0.14-0.022-0.199zM52.488 18.924c0.052-0.041 0.077-0.087 0.077-0.138 0-0.081-0.017-0.184-0.050-0.31-0.151-0.579-0.227-0.981-0.227-1.206 0-0.229 0.007-0.406 0.022-0.531 0.015-0.129 0.035-0.258 0.061-0.387 0.044-0.251 0.092-0.472 0.144-0.664 0.033-0.125 0.050-0.21 0.050-0.254 0-0.089-0.026-0.153-0.077-0.194-0.155 0.184-0.273 0.432-0.354 0.741-0.041 0.129-0.11 0.404-0.173 0.681l-0.026 0.138c-0.019 0.096-0.127 0.19-0.327 0.282 0.199 0.092 0.308 0.186 0.327 0.282 0.136 0.623 0.249 1.019 0.337 1.189s0.16 0.293 0.216 0.37zM62.471 20.5c-0.52 0-0.8-0.36-0.841-1.079-0.184 0.334-0.443 0.607-0.754 0.802l-0.009 0.005c-0.289 0.187-0.643 0.299-1.022 0.299-0.002 0-0.005 0-0.007 0h0c-0.365 0-0.662-0.050-0.891-0.149s-0.419-0.246-0.568-0.429l-0.002-0.003c-0.295-0.369-0.442-0.892-0.442-1.571v-0.343c0-0.428-0.225-0.745-0.675-0.951 0.266-0.129 0.435-0.238 0.509-0.326 0.103-0.122 0.166-0.282 0.166-0.456 0-0.001 0-0.002 0-0.003v0-0.747c0-0.313-0.107-0.483-0.321-0.509-0.065-0.007-0.14-0.011-0.216-0.011-0.008 0-0.015 0-0.023 0h0.001c-0.101 0-0.193 0.036-0.266 0.095l0.001-0.001c-0.052-0.070-0.078-0.142-0.078-0.216 0-0.078 0.018-0.162 0.056-0.255 0.046-0.105 0.108-0.195 0.183-0.271l-0 0c0.192-0.199 0.415-0.299 0.669-0.299s0.494 0.042 0.719 0.127c0.162-0.232 0.354-0.348 0.575-0.348 0.38 0 0.57 0.199 0.57 0.597v3.601c0 0.701 0.162 1.121 0.486 1.261 0.103 0.044 0.218 0.066 0.343 0.066 0.129 0 0.245-0.026 0.349-0.078 0.103-0.055 0.193-0.129 0.271-0.221 0.144-0.181 0.236-0.428 0.276-0.741v-2.799c0-0.42-0.171-0.63-0.514-0.63-0.125 0-0.229 0.031-0.31 0.094-0.052-0.070-0.077-0.142-0.077-0.216 0-0.077 0.018-0.157 0.055-0.238 0.041-0.085 0.101-0.162 0.183-0.232 0.181-0.162 0.4-0.244 0.658-0.244 0.262 0 0.505 0.042 0.73 0.127 0.162-0.232 0.354-0.348 0.575-0.348 0.38 0 0.57 0.199 0.57 0.597v1.836c0 0.17 0.033 0.295 0.099 0.376 0.118 0.144 0.31 0.28 0.575 0.409-0.45 0.207-0.675 0.524-0.675 0.951v1.427c0.070 0.284 0.223 0.426 0.459 0.426 0.125 0 0.229-0.031 0.31-0.094 0.052 0.070 0.077 0.159 0.077 0.265 0 0.103-0.054 0.203-0.16 0.299-0.103 0.096-0.267 0.144-0.492 0.144-0.233-0-0.451-0.066-0.636-0.18l0.005 0.003c-0.148 0.118-0.312 0.177-0.492 0.177zM62.056 18.924c0.214-0.085 0.326-0.492 0.337-1.222v-0.531c0-0.199-0.002-0.369-0.005-0.509 0-0.144-0.002-0.28-0.006-0.409-0.015-0.465-0.057-0.741-0.127-0.83-0.070-0.092-0.136-0.153-0.199-0.183v3.684zM58.749 17.082l0.017-0.73c0-0.328-0.011-0.546-0.033-0.652-0.063-0.28-0.151-0.433-0.265-0.459v0.36c0 0.623-0.015 0.99-0.044 1.101-0.026 0.107-0.070 0.188-0.133 0.243-0.059 0.052-0.148 0.098-0.266 0.138 0.221 0.078 0.347 0.172 0.376 0.282 0.044 0.177 0.066 0.577 0.066 1.2v0.36c0.111-0.026 0.201-0.19 0.271-0.493 0.018-0.084 0.028-0.291 0.028-0.619l-0.017-0.73zM66 23.028c-0.166 0.122-0.358 0.183-0.575 0.183s-0.38-0.048-0.487-0.144c-0.103-0.096-0.155-0.188-0.155-0.276 0-0.122 0.026-0.218 0.077-0.288 0.081 0.063 0.184 0.094 0.31 0.094 0.214 0 0.367-0.123 0.459-0.371v-4.358c0-0.17-0.035-0.295-0.105-0.376-0.111-0.137-0.3-0.271-0.57-0.404 0.45-0.207 0.675-0.526 0.675-0.957v-0.581c0-0.313-0.107-0.483-0.321-0.509-0.065-0.007-0.14-0.011-0.216-0.011-0.008 0-0.015 0-0.023 0h0.001c-0.101 0-0.193 0.036-0.266 0.095l0.001-0.001c-0.052-0.070-0.078-0.142-0.078-0.216 0-0.078 0.018-0.162 0.055-0.255 0.040-0.096 0.099-0.186 0.177-0.271 0.195-0.199 0.42-0.299 0.675-0.299 0.258 0 0.472 0.041 0.642 0.122 0.203-0.229 0.42-0.343 0.653-0.343 0.38 0 0.57 0.199 0.57 0.597v0.039c0.291-0.291 0.671-0.489 1.14-0.592 0.144-0.029 0.328-0.044 0.553-0.044 0.257 0.002 0.504 0.038 0.739 0.104l-0.020-0.005c0.254 0.066 0.474 0.189 0.654 0.355l-0.001-0.001c0.369 0.339 0.596 0.944 0.68 1.814 0.037 0.45 0.262 0.769 0.675 0.957-0.262 0.129-0.428 0.238-0.498 0.326-0.092 0.125-0.151 0.277-0.177 0.454-0.107 0.889-0.336 1.545-0.686 1.969-0.383 0.461-0.938 0.691-1.665 0.691-0.56 0-1.025-0.147-1.394-0.442v2.13c0.092 0.254 0.245 0.381 0.459 0.381 0.125 0 0.229-0.031 0.31-0.094 0.052 0.070 0.078 0.157 0.078 0.26 0 0.107-0.054 0.208-0.161 0.304-0.103 0.096-0.262 0.144-0.475 0.144-0.003 0-0.006 0-0.009 0-0.215 0-0.413-0.068-0.575-0.185l0.003 0.002c-0.148 0.122-0.332 0.183-0.553 0.183-0.218 0-0.409-0.061-0.575-0.183zM67.493 18.636c0 0.298 0.1 0.555 0.299 0.769 0.195 0.21 0.415 0.315 0.658 0.315 0.616 0 0.924-0.443 0.924-1.328v-2.422c0-0.406-0.072-0.723-0.216-0.951-0.144-0.232-0.347-0.348-0.609-0.348-0.468 0-0.791 0.258-0.968 0.774-0.059 0.177-0.088 0.389-0.088 0.636v2.555zM69.905 18.924c0.184-0.070 0.287-0.311 0.31-0.724 0.018-0.413 0.028-0.719 0.028-0.918 0-0.203-0.002-0.37-0.006-0.503 0-0.137-0.002-0.277-0.005-0.42-0.015-0.538-0.057-0.852-0.127-0.94s-0.136-0.148-0.199-0.177v3.684zM66.149 20.533c0.173-0.118 0.271-0.365 0.293-0.741 0.007-0.214 0.013-0.461 0.017-0.741 0.007-0.63 0.011-1.030 0.011-1.2 0.004-0.173 0.005-0.321 0.005-0.442v-0.437c-0-0.077-0.002-0.152-0.006-0.227l0 0.012c0-0.089-0.002-0.183-0.006-0.282 0-0.103-0.004-0.203-0.011-0.299-0.018-0.365-0.059-0.601-0.122-0.708-0.059-0.11-0.12-0.186-0.182-0.227v0.332c0 0.642-0.015 1.018-0.044 1.129-0.026 0.107-0.070 0.188-0.133 0.243-0.059 0.055-0.148 0.103-0.266 0.144 0.221 0.077 0.347 0.17 0.376 0.276 0.044 0.162 0.067 0.616 0.067 1.361v1.809z"></path>
</symbol>
<symbol id="checkmark" viewBox="0 0 32 32">
<path d="M27 4l-15 15-7-7-5 5 12 12 20-20z"></path>
</symbol>
<symbol id="phone" viewBox="0 0 32 32">
<path d="M22 20c-2 2-2 4-4 4s-4-2-6-4-4-4-4-6 2-2 4-4-4-8-6-8-6 6-6 6c0 4 4.109 12.109 8 16s12 8 16 8c0 0 6-4 6-6s-6-8-8-6z"></path>
</symbol>
<symbol id="location2" viewBox="0 0 32 32">
<path d="M16 0c-5.523 0-10 4.477-10 10 0 10 10 22 10 22s10-12 10-22c0-5.523-4.477-10-10-10zM16 16.125c-3.383 0-6.125-2.742-6.125-6.125s2.742-6.125 6.125-6.125 6.125 2.742 6.125 6.125-2.742 6.125-6.125 6.125zM12.125 10c0-2.14 1.735-3.875 3.875-3.875s3.875 1.735 3.875 3.875c0 2.14-1.735 3.875-3.875 3.875s-3.875-1.735-3.875-3.875z"></path>
</symbol>
<symbol id="clock" viewBox="0 0 32 32">
<path d="M20.586 23.414l-6.586-6.586v-8.828h4v7.172l5.414 5.414zM16 0c-8.837 0-16 7.163-16 16s7.163 16 16 16 16-7.163 16-16-7.163-16-16-16zM16 28c-6.627 0-12-5.373-12-12s5.373-12 12-12c6.627 0 12 5.373 12 12s-5.373 12-12 12z"></path>
</symbol>
<symbol id="menu-open" viewBox="0 0 32 32">
<path d="M6.4 11.734v-2.134h19.2v2.134h-19.2zM6.4 17.066h19.2v-2.133h-19.2v2.133zM6.4 22.4h19.2v-2.134h-19.2v2.134z"></path>
</symbol>
<symbol id="menu-close" viewBox="0 0 32 32">
<path d="M23.734 10.304l-1.504-1.504-5.963 5.962-5.962-5.962-1.504 1.504 5.962 5.962-5.962 5.963 1.504 1.504 5.962-5.963 5.963 5.963 1.504-1.504-5.963-5.963 5.963-5.962z"></path>
</symbol>
</defs>
</svg>
